<?xml version="1.0" encoding="utf-8"?>
<!-- Generator: Adobe Illustrator 16.0.0, SVG Export Plug-In . SVG Version: 6.00 Build 0)  -->
<!DOCTYPE svg PUBLIC "-//W3C//DTD SVG 1.1//EN" "http://www.w3.org/Graphics/SVG/1.1/DTD/svg11.dtd">
<svg version="1.1" xmlns="http://www.w3.org/2000/svg" xmlns:xlink="http://www.w3.org/1999/xlink" x="0px" y="0px"
	 width="195px" height="60px" viewBox="0 0 195 60" enable-background="new 0 0 195 60" xml:space="preserve">
<path fill="none" stroke="#b2b2b2" stroke-width="6" stroke-linecap="round" stroke-linejoin="round" d="M22.38,5.85
	C22.07,12.31,15.83,20,9.07,20.59c-6.2,0.54-7.83-7-1.8-7.5c4.71-0.39,7.31,5.47,11.53,6.59c6.79,1.81,14.42-2.83,17.12-8.9
	c-4.71,7.01-12.21,31.55,8.53,29.04C50.18,39.14,50.91,9.29,60,8.62c-6.43,0.58-10.46,16.79-2.26,16.08
	c5.3-0.46,9.22-4.96,11.17-9.17c-2.64,7.95-9.58,22,0.83,21.07c8.11-0.72,9.02-22.93,17.52-23.95c0.47,3.56-3.29,21.27-0.27,22.03
	c7.58,1.92,17.96-15.01,18.83-19.4c0.52-2.62-2.96-4.5-2.71-0.92c0.22,3.15,3.86,2.67,6.04,1.89c2.77-0.99,7.78-3.16,10.3-7.53
	c-2.52,4.38-12.21,24.32-0.14,22.07c9.16-1.71,17.32-24.09,17.32-24.09s-7.95,22.96-2.69,22.33c11.58-1.4,18.65-18.33,19.29-24.63
	c0.28,5.81,12.43,16.98,8.84,28.85c-3.97,13.13-15.56,12.03-16.89,6.88c-1.27-4.92,2.75-12.33,20.17-5.08
	c19.13,7.96,28.42-13.72,22.58-21.67"/>
<path fill="#b2b2b2" d="M88.68,58.46c-1.41,0-2.96-0.54-4.6-1.61l0,0.3c0,0.45-0.4,0.87-0.85,0.87h-1.88c-1.1,0-6.46-6.08-6.51-6.14
	l0,5.42c0,0.37-0.3,0.67-0.67,0.67l-7.5-0.01c-0.43,0-0.73-0.32-0.73-0.77V47.13c0-0.44,0.31-0.77,0.73-0.77h2.28
	c0.4,0,0.72,0.34,0.72,0.77v7.33l1.5,0l0-7.16c0-0.44,0.34-0.93,0.83-0.93h2.07c0.79,0,1.02,0.26,1.98,1.38
	c0.25,0.29,0.56,0.64,0.93,1.06l3.43,3.73l0-5.48c0-0.36,0.31-0.68,0.65-0.68h2.11c0.48,0,0.9,0.41,0.9,0.88v7.5l0.23-0.3
	c0.31-0.44,0.55-0.62,0.84-0.62c0.25,0,0.54,0.14,0.89,0.36c0.69,0.49,1.56,1.1,2.54,1.1c0.19,0,0.37-0.02,0.56-0.07
	c0.26-0.06,0.46-0.23,0.55-0.47c0.09-0.24,0.04-0.51-0.12-0.73c-0.27-0.36-0.73-0.57-1.35-0.61l0.02,0
	c-1.42-0.29-2.82-0.72-3.45-1.85c-0.64-1.16-0.56-2.73,0.21-3.83c0.78-1.11,2.13-1.73,3.78-1.73c1.42,0,2.86,0.47,3.87,1.26l0-0.16
	c0-0.38,0.33-0.68,0.73-0.68h8.73c0.38,0,0.72,0.33,0.72,0.68v1.93c0,0.38-0.33,0.72-0.72,0.72h-2.63l0,4.74l1.89,0l2.9-7.37
	c0.19-0.45,0.61-0.73,1.13-0.75h2.4c0.53,0.02,0.96,0.32,1.1,0.75l2.93,7.37l0.51,0l0-7.19c0-0.44,0.34-0.93,0.83-0.93h2.07
	c0.84,0,1.15,0.34,1.62,0.85c0.08,0.09,0.17,0.18,0.26,0.28l4.46,4.97l0-5.42c0-0.36,0.31-0.68,0.65-0.68h2.12
	c0.23,0,0.43,0.08,0.61,0.25c0.14-0.13,0.31-0.2,0.52-0.2h8.73c0.17,0,0.33,0.06,0.46,0.18c0,0-0.01-0.01-0.01-0.01l0,0l0,0l0,0
	c0,0,0,0,0,0c0,0,0,0,0.04,0.04v0v0l0,0l0,0c0,0,0.01,0.01,0.01,0.01l0,0h0c0,0,0.01,0.01,0.01,0.01c0.01,0.01,0.01,0.01,0.01,0.01
	c0,0,0,0,0,0v0c0,0,0,0,0,0h0l0,0l0,0c0,0,0,0-0.01-0.01c0.12,0.13,0.18,0.28,0.18,0.44v1.93c0,0.38-0.33,0.72-0.72,0.72h-2.63
	l0,7.53c0,0.37-0.25,0.75-0.67,0.75h-2.21c-0.42,0-0.67-0.37-0.67-0.73l0-7.54l-2.78,0l0,7.41c0,0.45-0.4,0.87-0.85,0.87h-1.88
	c-0.97,0-1.74-0.91-2.42-1.71c-0.17-0.2-0.34-0.4-0.49-0.56c-0.62-0.65-3.57-3.84-3.6-3.87l0,5.45c0,0.37-0.3,0.67-0.67,0.67
	l-5.61,0c-0.28,0-0.65-0.05-0.77-0.46l-2.43-6.33l-2.31,6.33c-0.13,0.44-0.66,0.48-0.89,0.48h-6.62c-0.42,0-0.67-0.37-0.67-0.73
	l0-7.54l-2.67,0c-0.36,0-0.66-0.25-0.71-0.61l-0.37,0.4c-0.21,0.22-0.43,0.33-0.68,0.33c-0.36,0-0.72-0.23-1.1-0.48
	c-0.23-0.15-0.48-0.31-0.72-0.41c-0.28-0.11-0.7-0.19-1.08-0.19c-0.5,0-0.87,0.13-1.05,0.36c-0.13,0.18-0.16,0.42-0.07,0.71
	c0.21,0.72,1.12,0.87,1.92,0.99c0.28,0.04,0.54,0.09,0.75,0.15c1.08,0.34,1.91,0.86,2.47,1.55c0.62,0.76,0.83,1.66,0.61,2.59
	c-0.29,1.2-1.28,2.33-2.54,2.88C90.14,58.31,89.42,58.46,88.68,58.46z"/>
</svg>
