<?xml version="1.0" encoding="utf-8"?>
<!-- Generator: Adobe Illustrator 16.0.0, SVG Export Plug-In . SVG Version: 6.00 Build 0)  -->
<!DOCTYPE svg PUBLIC "-//W3C//DTD SVG 1.1//EN" "http://www.w3.org/Graphics/SVG/1.1/DTD/svg11.dtd">
<svg version="1.1" xmlns="http://www.w3.org/2000/svg" xmlns:xlink="http://www.w3.org/1999/xlink" x="0px" y="0px"  width="220px" height="75px" viewBox="0 0 220 75" enable-background="new 0 0 220 75" xml:space="preserve">
<path fill="none" stroke="#0071BC" stroke-width="15" stroke-linecap="round" stroke-linejoin="round" d="M36.63,12.47 c-0.3,6.47-6.54,14.16-13.31,14.74c-6.2,0.54-7.83-7-1.8-7.5c4.71-0.39,7.31,5.47,11.53,6.59c6.79,1.81,14.42-2.83,17.12-8.9 c-4.71,7.01-12.21,31.55,8.53,29.04c5.72-0.69,6.45-30.54,15.54-31.21c-6.43,0.58-10.46,16.79-2.26,16.08 c5.3-0.46,9.22-4.96,11.17-9.17c-2.64,7.95-9.58,22,0.83,21.07c8.11-0.72,9.02-22.93,17.52-23.95c0.47,3.56-3.29,21.27-0.27,22.03 c7.58,1.92,17.96-15.01,18.83-19.4c0.52-2.62-2.96-4.5-2.71-0.92c0.22,3.15,3.86,2.67,6.04,1.89c2.77-0.99,7.78-3.16,10.3-7.53 c-2.52,4.38-12.21,24.32-0.14,22.07c9.16-1.71,17.32-24.09,17.32-24.09s-7.95,22.96-2.69,22.33c11.58-1.4,18.65-18.33,19.29-24.63 c0.28,5.81,12.43,16.98,8.84,28.85c-3.97,13.13-15.56,12.03-16.89,6.88c-1.27-4.92,2.75-12.33,20.17-5.08 c19.13,7.96,28.42-13.72,22.58-21.67"/>
<path fill="none" stroke="#FFFFFF" stroke-width="10" stroke-linecap="round" stroke-linejoin="round" d="M35.63,11.47 c-0.3,6.47-6.54,14.16-13.31,14.74c-6.2,0.54-7.83-7-1.8-7.5c4.71-0.39,7.31,5.47,11.53,6.59c6.79,1.81,14.42-2.83,17.12-8.9 c-4.71,7.01-12.21,31.55,8.53,29.04c5.72-0.69,6.45-30.54,15.54-31.21c-6.43,0.58-10.46,16.79-2.26,16.08 c5.3-0.46,9.22-4.96,11.17-9.17c-2.64,7.95-9.58,22,0.83,21.07c8.11-0.72,9.02-22.93,17.52-23.95c0.47,3.56-3.29,21.27-0.27,22.03 c7.58,1.92,17.96-15.01,18.83-19.4c0.52-2.62-2.96-4.5-2.71-0.92c0.22,3.15,3.86,2.67,6.04,1.89c2.77-0.99,7.78-3.16,10.3-7.53 c-2.52,4.38-12.21,24.32-0.14,22.07c9.16-1.71,17.32-24.09,17.32-24.09s-7.95,22.96-2.69,22.33c11.58-1.4,18.65-18.33,19.29-24.63 c0.28,5.81,12.43,16.98,8.84,28.85c-3.97,13.13-15.56,12.03-16.89,6.88c-1.27-4.92,2.75-12.33,20.17-5.08 c19.13,7.96,28.42-13.72,22.58-21.67"/>
<path fill="none" stroke="#C1272D" stroke-width="5" stroke-linecap="round" stroke-linejoin="round" d="M34.63,10.47 c-0.3,6.47-6.54,14.16-13.31,14.74c-6.2,0.54-7.83-7-1.8-7.5c4.71-0.39,7.31,5.47,11.53,6.59c6.79,1.81,14.42-2.83,17.12-8.9 c-4.71,7.01-12.21,31.55,8.53,29.04c5.72-0.69,6.45-30.54,15.54-31.21c-6.43,0.58-10.46,16.79-2.26,16.08 c5.3-0.46,9.22-4.96,11.17-9.17c-2.64,7.95-9.58,22,0.83,21.07c8.11-0.72,9.02-22.93,17.52-23.95c0.47,3.56-3.29,21.27-0.27,22.03 c7.58,1.92,17.96-15.01,18.83-19.4c0.52-2.62-2.96-4.5-2.71-0.92c0.22,3.15,3.86,2.67,6.04,1.89c2.77-0.99,7.78-3.16,10.3-7.53 c-2.52,4.38-12.21,24.32-0.14,22.07c9.16-1.71,17.32-24.09,17.32-24.09s-7.95,22.96-2.69,22.33c11.58-1.4,18.65-18.33,19.29-24.63 c0.28,5.81,12.43,16.98,8.84,28.85c-3.97,13.13-15.56,12.03-16.89,6.88c-1.27-4.92,2.75-12.33,20.17-5.08 c19.13,7.96,28.42-13.72,22.58-21.67"/>
<path fill="none" stroke="#0071BC" stroke-miterlimit="10" d="M102.93,70.08c-1.25,0-2.55-0.31-3.88-0.93 c-0.45,0.31-0.99,0.49-1.57,0.49H95.6c-0.62,0-1.47,0-4.51-3.04v0.33c0,1.47-1.2,2.67-2.67,2.67l-6.5-0.01 c-1.53,0-2.73-1.22-2.73-2.77V56.75c0-1.55,1.2-2.77,2.73-2.77h2.28c0.36,0,0.7,0.07,1.02,0.2c0.32-0.13,0.67-0.2,1.03-0.2h2.07 c1.7,0,2.41,0.82,3.49,2.07c0.23,0.27,0.51,0.59,0.85,0.97v-0.35c0-1.45,1.21-2.68,2.65-2.68h2.11c0.69,0,1.33,0.24,1.83,0.65 c1.05-0.66,2.35-1.02,3.76-1.02c1.18,0,2.35,0.24,3.4,0.69c0.36-0.17,0.77-0.27,1.2-0.27h8.73c0.56,0,1.1,0.18,1.54,0.49 c0.49-0.32,1.06-0.5,1.67-0.53l2.49,0c1.27,0.05,2.31,0.7,2.81,1.69c0.45-1,1.43-1.69,2.56-1.69h2.07c1.73,0,2.55,0.91,3.1,1.51 l1.25,1.38v-0.2c0-1.45,1.21-2.68,2.65-2.68h2.12c0.24,0,0.47,0.03,0.69,0.08c0.14-0.02,0.29-0.03,0.44-0.03h8.73 c0.68,0,1.3,0.24,1.82,0.7c0,0,0.01,0.01,0.02,0.02c0.01,0.01,0.02,0.02,0.03,0.03l0,0c0,0,0,0,0,0c0,0,0.01,0.01,0.01,0.01 c0.06,0.06,0.11,0.11,0.16,0.17c0,0,0.01,0.01,0.01,0.01c0.44,0.52,0.66,1.11,0.66,1.74v1.93c0,1.47-1.24,2.72-2.72,2.72h-0.63v5.53 c0,1.52-1.2,2.75-2.67,2.75h-2.21c-0.86,0-1.62-0.42-2.11-1.06c-0.53,0.64-1.32,1.06-2.19,1.06h-1.88c-1.9,0-3.13-1.45-3.94-2.42 c-0.15-0.17-0.28-0.34-0.42-0.48c-0.04-0.04-0.09-0.1-0.15-0.16v0.37c0,1.47-1.2,2.67-2.67,2.67l-5.61,0c-1.52,0-2.36-0.91-2.66-1.8 l-0.5-1.29l-0.47,1.28c-0.37,1.11-1.45,1.83-2.78,1.83h-6.62c-1.26,0-2.31-0.89-2.59-2.09c-0.66,0.81-1.52,1.48-2.51,1.92 C104.94,69.88,103.95,70.08,102.93,70.08z"/>
<path fill="none" stroke="#0071BC" stroke-linejoin="round" stroke-miterlimit="10" d="M102.93,68.08c-1.41,0-2.96-0.54-4.6-1.61 l0,0.3c0,0.45-0.4,0.87-0.85,0.87H95.6c-1.1,0-6.46-6.08-6.51-6.14l0,5.42c0,0.37-0.3,0.67-0.67,0.67l-6.5-0.01 c-0.43,0-0.73-0.32-0.73-0.77V56.75c0-0.44,0.31-0.77,0.73-0.77h2.28c0.4,0,0.72,0.34,0.72,0.77v7.33l0.5,0l0-7.16 c0-0.44,0.34-0.93,0.83-0.93h2.07c0.79,0,1.02,0.26,1.98,1.38c0.25,0.29,0.56,0.64,0.93,1.06l3.43,3.73l0-5.48 c0-0.36,0.31-0.68,0.65-0.68h2.11c0.48,0,0.9,0.41,0.9,0.88v7.5l0.23-0.3c0.31-0.44,0.55-0.62,0.84-0.62c0.25,0,0.54,0.14,0.89,0.36 c0.69,0.49,1.56,1.1,2.54,1.1c0.19,0,0.37-0.02,0.56-0.07c0.26-0.06,0.46-0.23,0.55-0.47c0.09-0.24,0.04-0.51-0.12-0.73 c-0.27-0.36-0.73-0.57-1.35-0.61l0.02,0c-1.42-0.29-2.82-0.72-3.45-1.85c-0.64-1.16-0.56-2.73,0.21-3.83 c0.78-1.11,2.13-1.73,3.78-1.73c1.42,0,2.86,0.47,3.87,1.26l0-0.16c0-0.38,0.33-0.68,0.73-0.68h8.73c0.38,0,0.72,0.33,0.72,0.68 v1.93c0,0.38-0.33,0.72-0.72,0.72h-2.63l0,4.74l1.89,0l2.9-7.37c0.19-0.45,0.61-0.73,1.13-0.75h2.4c0.53,0.02,0.96,0.32,1.1,0.75 l2.93,7.37l0.51,0l0-7.19c0-0.44,0.34-0.93,0.83-0.93h2.07c0.84,0,1.15,0.34,1.62,0.85c0.08,0.09,0.17,0.18,0.26,0.28l4.46,4.97 l0-5.42c0-0.36,0.31-0.68,0.65-0.68h2.12c0.23,0,0.43,0.08,0.61,0.25c0.14-0.13,0.31-0.2,0.52-0.2h8.73c0.17,0,0.33,0.06,0.46,0.18 c0,0-0.01-0.01-0.01-0.01l0,0l0,0l0,0c0,0,0,0,0,0c0,0,0,0,0.04,0.04v0v0l0,0l0,0c0,0,0.01,0.01,0.01,0.01l0,0c0,0,0,0,0,0 c0,0,0.01,0.01,0.01,0.01c0.01,0.01,0.01,0.01,0.01,0.01c0,0,0,0,0,0v0c0,0,0,0,0,0h0l0,0l0,0c0,0,0,0-0.01-0.01 c0.12,0.13,0.18,0.28,0.18,0.44v1.93c0,0.38-0.33,0.72-0.72,0.72h-2.63l0,7.53c0,0.37-0.25,0.75-0.67,0.75h-2.21 c-0.42,0-0.67-0.37-0.67-0.73l0-7.54l-2.78,0l0,7.41c0,0.45-0.4,0.87-0.85,0.87h-1.88c-0.97,0-1.74-0.91-2.42-1.71 c-0.17-0.2-0.34-0.4-0.49-0.56c-0.62-0.65-3.57-3.84-3.6-3.87l0,5.45c0,0.37-0.3,0.67-0.67,0.67l-5.61,0 c-0.28,0-0.65-0.05-0.77-0.46l-2.43-6.33l-2.31,6.33c-0.13,0.44-0.66,0.48-0.89,0.48h-6.62c-0.42,0-0.67-0.37-0.67-0.73l0-7.54 l-2.67,0c-0.36,0-0.66-0.25-0.71-0.61l-0.37,0.4c-0.21,0.22-0.43,0.33-0.68,0.33c-0.36,0-0.72-0.23-1.1-0.48 c-0.23-0.15-0.48-0.31-0.72-0.41c-0.28-0.11-0.7-0.19-1.08-0.19c-0.5,0-0.87,0.13-1.05,0.36c-0.13,0.18-0.16,0.42-0.07,0.71 c0.21,0.72,1.12,0.87,1.92,0.99c0.28,0.04,0.54,0.09,0.75,0.15c1.08,0.34,1.91,0.86,2.47,1.55c0.62,0.76,0.83,1.66,0.61,2.59 c-0.29,1.2-1.28,2.33-2.54,2.88C104.39,67.93,103.67,68.08,102.93,68.08z"/>
</svg>
